<svg
    version="1.0"
    xmlns="http://www.w3.org/2000/svg"
    width="412pt"
    height="125pt"
    viewBox="0 0 412.000000 125.000000"
    preserveAspectRatio="xMidYMid meet"
>
    <g
        transform="translate(0.000000,125.000000) scale(0.100000,-0.100000)"
        fill="currentColor"
        stroke="currentColor"
    >
        <path
            d="M675 1093 c-144 -19 -288 -120 -365 -257 -23 -40 -42 -61 -65 -70
-19 -8 -38 -23 -44 -34 -6 -12 -11 -68 -11 -125 0 -118 14 -150 70 -162 23 -5
36 -18 54 -53 123 -242 464 -330 698 -181 61 40 130 115 162 176 17 35 33 53
51 57 56 14 65 36 65 160 0 99 -3 117 -21 140 -11 14 -29 26 -39 26 -14 0 -27
17 -46 58 -33 69 -137 176 -211 215 -83 44 -197 63 -298 50z m247 -112 c36
-18 85 -53 109 -78 41 -42 43 -45 26 -58 -17 -12 -25 -9 -75 32 -88 72 -131
88 -237 88 -79 0 -96 -4 -143 -28 -29 -15 -70 -43 -91 -62 -39 -35 -91 -48
-91 -22 0 7 17 29 38 48 97 93 170 121 303 116 86 -2 103 -6 161 -36z m-493
-215 c8 -9 11 -61 9 -161 -3 -128 -5 -149 -20 -159 -13 -8 -23 -8 -35 0 -16
10 -18 31 -21 159 -3 152 2 175 38 175 10 0 23 -6 29 -14z m129 2 c17 -17 17
-299 0 -316 -15 -15 -51 -15 -66 0 -17 17 -17 299 0 316 7 7 21 12 33 12 12 0
26 -5 33 -12z m432 -7 c5 -11 10 -79 10 -151 0 -72 -5 -140 -10 -151 -12 -21
-50 -25 -68 -7 -17 17 -17 299 0 316 18 18 56 14 68 -7z m119 5 c8 -9 11 -61
9 -161 -3 -128 -5 -149 -20 -159 -13 -8 -23 -8 -35 0 -16 10 -18 31 -21 159
-3 152 2 175 38 175 10 0 23 -6 29 -14z m-802 -54 c7 -4 13 -44 15 -100 3 -83
1 -95 -16 -108 -17 -12 -23 -12 -40 0 -18 11 -21 25 -24 99 -2 67 1 88 13 101
18 17 33 20 52 8z m921 -4 c7 -7 12 -45 12 -99 0 -94 -9 -113 -52 -107 -22 3
-23 7 -26 97 -3 96 5 121 37 121 9 0 22 -5 29 -12z m-360 -86 c7 -45 -12 -52
-130 -52 -103 0 -109 1 -117 22 -4 12 -6 30 -3 40 4 17 16 18 126 16 118 -3
121 -4 124 -26z m-361 -262 c65 -58 130 -83 223 -88 104 -5 174 18 243 78 48
42 68 48 86 26 9 -10 2 -22 -33 -54 -94 -87 -223 -125 -343 -103 -81 15 -155
49 -211 96 -43 37 -52 59 -29 68 22 10 29 7 64 -23z"
        />
        <path
            d="M1850 872 c-48 -39 -10 -122 49 -107 39 10 51 24 51 61 0 56 -56 82
-100 46z"
        />
        <path
            d="M3625 682 c-4 -110 -4 -227 0 -261 l7 -61 54 0 c30 0 54 3 55 8 11
144 23 154 82 63 l38 -59 72 -4 c40 -2 74 -3 75 -2 2 2 -28 44 -67 96 -39 51
-71 97 -71 103 0 5 29 43 65 83 36 40 65 74 65 75 0 1 -30 1 -67 1 l-67 -2
-54 -61 c-30 -34 -58 -61 -62 -61 -5 0 -8 62 -7 138 l2 137 -56 3 -57 3 -7
-199z"
        />
        <path
            d="M1452 618 l3 -253 58 -3 57 -3 0 96 0 95 99 0 99 0 4 51 c1 28 1 53
-1 55 -2 2 -49 4 -103 4 l-98 0 0 44 0 44 75 7 c41 4 90 4 110 1 l35 -7 0 61
0 60 -170 0 -170 0 2 -252z"
        />
        <path
            d="M2230 810 l0 -59 68 -3 67 -3 3 -192 2 -193 54 0 54 0 6 93 c4 50 5
137 4 192 l-3 100 65 5 65 5 3 58 3 57 -196 0 -195 0 0 -60z"
        />
        <path
            d="M2028 778 c-3 -48 -5 -53 -25 -52 -25 1 -29 -16 -17 -75 5 -21 12
-31 25 -31 17 0 19 -8 19 -81 0 -139 37 -182 153 -177 l62 3 3 42 c3 45 0 48
-68 55 -24 3 -25 5 -25 83 l0 80 32 3 c28 3 33 8 39 38 8 43 -1 68 -22 60 -9
-3 -26 -3 -40 0 -21 5 -24 12 -24 55 l0 49 -54 0 -55 0 -3 -52z"
        />
        <path
            d="M2811 729 c-33 -7 -80 -52 -81 -77 0 -7 -5 -10 -11 -6 -6 4 -8 20 -4
40 l6 34 -61 0 -60 0 2 -177 3 -178 58 -3 57 -3 0 100 c0 97 1 102 29 133 27
31 31 32 60 21 27 -10 32 -9 41 7 13 25 16 98 4 109 -5 4 -24 5 -43 0z"
        />
        <path
            d="M3005 734 c-16 -3 -47 -12 -68 -21 -34 -15 -37 -20 -32 -42 11 -45
22 -51 60 -35 52 21 92 18 120 -11 39 -38 32 -47 -30 -40 -99 13 -185 -39
-185 -112 0 -38 34 -91 66 -103 42 -16 106 -12 142 10 40 25 42 25 42 0 0 -17
7 -20 50 -20 l50 0 0 131 c0 149 -11 186 -65 219 -34 21 -98 31 -150 24z m93
-241 c-6 -57 -108 -73 -108 -17 0 28 26 42 78 43 30 1 33 -1 30 -26z"
        />
        <path
            d="M3398 730 c-105 -31 -160 -128 -133 -232 32 -126 172 -177 294 -107
l53 31 -33 34 c-36 38 -50 41 -69 19 -7 -9 -29 -15 -50 -15 -76 0 -117 93 -65
145 28 29 83 34 118 11 20 -14 25 -12 57 15 l35 29 -32 29 c-47 44 -114 60
-175 41z"
        />
        <path
            d="M1853 723 l-33 -4 0 -73 c0 -40 3 -121 7 -179 l6 -107 54 0 53 0 0
185 0 185 -27 -2 c-16 0 -43 -3 -60 -5z"
        />
    </g>
</svg>
